<svg xmlns="http://www.w3.org/2000/svg" viewBox="0 0 787 93"><defs><style>.cls-1{fill:#003260;}</style></defs><g id="Layer_2" data-name="Layer 2"><g id="Layer_1-2" data-name="Layer 1"><path class="cls-1" d="M28,53V93H14V0H50C68.17,0,78.11,10.5,78.11,26.57c0,13.68-7.2,23.25-20.54,25.77L81.12,93H66L42.48,53ZM50.1,14H28V39H50.1c8.56,0,13.95-4.47,13.95-12.5S58.66,14,50.1,14Z"/><path class="cls-1" d="M169.37,14.15v64.7h20.22V93H135V78.85h20.22V14.15H135V0h54.59V14.15Z"/><path class="cls-1" d="M247,0h35.87c18.47,0,28.57,10.5,28.57,26.57,0,7.84-3.19,14.61-9.17,18.86,8,4.79,11.43,12.5,11.43,20.73,0,16.48-10,26.84-28.57,26.84H247Zm14.15,14.15V39.42h21.91c8.74,0,14.26-4.43,14.26-12.63s-5.52-12.64-14.26-12.64Zm0,39.43V79.86h24.38c9,0,14.36-4.47,14.36-13.14s-5.41-13.14-14.36-13.14Z"/><path class="cls-1" d="M384.15,39.42h31.34V53.58H384.15V79.86h40.44V93H370V0h54.59V14.15H384.15Z"/><path class="cls-1" d="M497,53V93H483V0h36c18.19,0,28.13,10.5,28.13,26.57,0,13.68-7.2,23.25-20.54,25.77L550.12,93H535L511.48,53Zm22.1-39H497V39h22.1c8.56,0,13.95-4.47,13.95-12.5S527.66,14,519.1,14Z"/><path class="cls-1" d="M614,53V93H600V0h36c18.19,0,28.13,10.5,28.13,26.57,0,13.68-7.2,23.25-20.54,25.77L667.12,93H652L628.48,53Zm22.1-39H614V39h22.1c8.56,0,13.95-4.47,13.95-12.5S644.66,14,636.1,14Z"/><path class="cls-1" d="M754.4,57.41V92.8H740.28V57.41L707.81,0h15.58l24,42.69L771.43,0H787Z"/><rect class="cls-1" y="39" width="25" height="14"/></g></g></svg>